<svg xmlns="http://www.w3.org/2000/svg" xmlns:xlink="http://www.w3.org/1999/xlink" viewBox="0 0 171.28 139.54"><defs><style>.cls-1{fill:url(#Degradado_sin_nombre_8);}.cls-2{fill:#5f76e8;}.cls-3{fill:#01caf1;}</style><linearGradient id="Degradado_sin_nombre_8" x1="23.4" y1="121.88" x2="149.21" y2="121.88" gradientUnits="userSpaceOnUse"><stop offset="1" stop-color="#ff4f70"/><stop offset="1" stop-color="#01caf1"/></linearGradient></defs><g id="Capa_2" data-name="Capa 2"><g id="Capa_1-2" data-name="Capa 1"><path class="cls-1" d="M131.55,139.54H41.06A17.66,17.66,0,0,1,23.4,121.88h0a17.66,17.66,0,0,1,17.66-17.66h90.49a17.66,17.66,0,0,1,17.66,17.66h0A17.66,17.66,0,0,1,131.55,139.54Z"/><path class="cls-2" d="M129.86,35.33H39.37A17.67,17.67,0,0,1,21.71,17.66h0A17.66,17.66,0,0,1,39.37,0h90.49a17.66,17.66,0,0,1,17.66,17.66h0A17.67,17.67,0,0,1,129.86,35.33Z"/><rect class="cls-3" y="52.11" width="171.28" height="35.33" rx="17.66"/></g></g></svg>